<svg xmlns="http://www.w3.org/2000/svg" class="" width="640" height="640" viewBox="0 0 512 512"><metadata><rdf:RDF xmlns:rdf="http://www.w3.org/1999/02/22-rdf-syntax-ns#" xmlns:dc="http://purl.org/dc/elements/1.1/"><rdf:Description><dc:creator>RealFaviconGenerator</dc:creator><dc:source>https://realfavicongenerator.net</dc:source></rdf:Description></rdf:RDF></metadata><rect width="512" height="512" rx="30" ry="30" fill="#212529"></rect><g>
<path d="M123.391,72.348C104.949,72.348,90,87.297,90,105.739v300.522c0,18.442,14.949,33.391,33.391,33.391 s33.391-14.949,33.391-33.391V105.739C156.783,87.297,141.833,72.348,123.391,72.348z" fill="#00ff00"></path>
<path d="M256,72.348c-18.442,0-33.391,14.949-33.391,33.391v300.522c0,18.442,14.949,33.391,33.391,33.391 s33.391-14.949,33.391-33.391V105.739C289.391,87.297,274.442,72.348,256,72.348z" fill="#ffff00"></path>
<path d="M388.609,72.348c-18.442,0-33.391,14.949-33.391,33.391v300.522c0,18.442,14.949,33.391,33.391,33.391 s33.391-14.949,33.391-33.391V105.739C422,87.297,407.051,72.348,388.609,72.348z" fill="#ff0000"></path>
</g></svg>